<?xml version="1.0" encoding="utf-8"?>
<!-- Uploaded to: SVG Repo, www.svgrepo.com, Generator: SVG Repo Mixer Tools -->
<svg width="800px" height="800px" viewBox="0 0 64 64" xmlns="http://www.w3.org/2000/svg" xmlns:xlink="http://www.w3.org/1999/xlink" aria-hidden="true" role="img" class="iconify iconify--emojione" preserveAspectRatio="xMidYMid meet">
<g fill="#83bf4f">
<path d="M43.8 63.4c-7.7 2-11-2-11-2s.6-6.2 8.4-8.2c5.3-1.4 15.3 1.4 15.3 1.4s-7.4 7.4-12.7 8.8">
</path>
<path d="M21 58c7.7 2 11-2 11-2s-.6-6.2-8.4-8.2c-5.3-1.4-15.3 1.4-15.3 1.4S15.7 56.6 21 58">
</path>
</g>
<path d="M32 28v36" fill="none" stroke="#75a843" stroke-width="4" stroke-miterlimit="10">
</path>
<g fill="#ffd68d">
<path d="M50.3 19.6c-4.9 4.9-15 8.4-16.7 6.8c-1.6-1.6 1.8-11.8 6.8-16.7c6.9-6.9 16.8 3 9.9 9.9">
</path>
<path d="M13.7 36.4c4.9-4.9 15-8.4 16.7-6.8c1.6 1.6-1.9 11.7-6.8 16.7c-6.9 6.9-16.8-3-9.9-9.9">
</path>
<path d="M40.4 46.3c-4.9-4.9-8.4-15-6.8-16.7c1.6-1.6 11.8 1.8 16.7 6.8c6.9 6.9-3 16.8-9.9 9.9">
</path>
<path d="M23.6 9.7c4.9 4.9 8.4 15 6.8 16.7c-1.6 1.6-11.8-1.9-16.7-6.8c-6.9-6.9 3-16.8 9.9-9.9">
</path>
</g>
<g fill="#ffe9ab">
<path d="M50.9 35c-7 0-16.6-4.7-16.6-7s9.6-7 16.6-7c9.8 0 9.8 14 0 14">
</path>
<path d="M13.1 21c7 0 16.6 4.7 16.6 7s-9.6 7-16.6 7c-9.8 0-9.8-14 0-14">
</path>
<path d="M25 46.9c0-7 4.7-16.6 7-16.6s7 9.6 7 16.6c0 9.8-14 9.8-14 0">
</path>
<path d="M39 9.1c0 7-4.7 16.6-7 16.6s-7-9.6-7-16.6c0-9.8 14-9.8 14 0">
</path>
</g>
<circle cx="32" cy="28" r="9.6" fill="#f29a2e">
</circle>
</svg>