<?xml version="1.0" encoding="iso-8859-1"?>
<!-- Uploaded to: SVG Repo, www.svgrepo.com, Generator: SVG Repo Mixer Tools -->
<svg height="800px" width="800px" version="1.1" id="Layer_1" xmlns="http://www.w3.org/2000/svg" xmlns:xlink="http://www.w3.org/1999/xlink" 
	 viewBox="0 0 512 512" xml:space="preserve">
<g>
	<path style="fill:#4A7DBA;" d="M500.87,345.043h-66.783V211.478l0,0c36.883,0,66.783,29.9,66.783,66.783V345.043z"/>
	<path style="fill:#4A7DBA;" d="M11.13,345.043h66.783V211.478l0,0c-36.883,0-66.783,29.9-66.783,66.783V345.043z"/>
</g>
<g>
	<path style="fill:#87DFD6;" d="M345.043,500.87c24.588,0,44.522-19.933,44.522-44.522h-89.043
		C300.522,480.936,320.455,500.87,345.043,500.87z"/>
	<path style="fill:#87DFD6;" d="M166.957,500.87c24.588,0,44.522-19.933,44.522-44.522h-89.043
		C122.435,480.936,142.368,500.87,166.957,500.87z"/>
	<path style="fill:#87DFD6;" d="M44.522,411.826L44.522,411.826c-18.442,0-33.391-14.949-33.391-33.391v-33.391h66.783v33.391
		C77.913,396.877,62.964,411.826,44.522,411.826z"/>
	<path style="fill:#87DFD6;" d="M467.478,411.826L467.478,411.826c18.442,0,33.391-14.949,33.391-33.391v-33.391h-66.783v33.391
		C434.087,396.877,449.036,411.826,467.478,411.826z"/>
</g>
<path style="fill:#DFF5F2;" d="M367.304,211.478H144.696c-24.588,0-44.522-19.934-44.522-44.522V55.652
	c0-24.588,19.933-44.522,44.522-44.522h222.609c24.588,0,44.522,19.933,44.522,44.522v111.304
	C411.826,191.545,391.893,211.478,367.304,211.478z"/>
<path style="fill:#4A7DBA;" d="M312.765,122.435H201.461c-18.442,0-33.391-14.949-33.391-33.391l0,0
	c0-18.442,14.949-33.391,33.391-33.391h111.304c18.442,0,33.391,14.949,33.391,33.391l0,0
	C346.156,107.485,331.207,122.435,312.765,122.435z"/>
<path style="fill:#DFF5F2;" d="M392.904,456.348H119.096c-22.745,0-41.183-18.438-41.183-41.183V211.478h356.174v203.687
	C434.087,437.91,415.649,456.348,392.904,456.348z"/>
<polygon style="fill:#4A7DBA;" points="280.487,256 280.487,300.522 302.748,300.522 369.53,300.522 391.791,300.522 391.791,256 
	"/>
<path d="M311.652,44.522H200.348c-24.549,0-44.522,19.972-44.522,44.522s19.972,44.522,44.522,44.522h111.304
	c24.549,0,44.522-19.972,44.522-44.522S336.201,44.522,311.652,44.522z M311.652,111.304H200.348
	c-12.275,0-22.261-9.986-22.261-22.261s9.986-22.261,22.261-22.261h111.304c12.275,0,22.261,9.986,22.261,22.261
	S323.927,111.304,311.652,111.304z"/>
<path d="M344.186,296.27c-0.278-0.679-0.623-1.325-1.024-1.926c-0.401-0.612-0.868-1.18-1.38-1.692s-1.08-0.979-1.692-1.38
	c-0.601-0.401-1.247-0.746-1.926-1.024c-0.668-0.278-1.369-0.501-2.081-0.634c-3.617-0.735-7.457,0.456-10.04,3.039
	c-2.07,2.07-3.261,4.942-3.261,7.869c0,0.723,0.078,1.458,0.223,2.17c0.134,0.712,0.356,1.414,0.634,2.081
	c0.278,0.679,0.623,1.325,1.024,1.926c0.401,0.612,0.868,1.18,1.38,1.692c0.512,0.512,1.08,0.979,1.692,1.38
	c0.601,0.401,1.247,0.746,1.926,1.024c0.668,0.278,1.369,0.501,2.081,0.634c0.712,0.145,1.447,0.223,2.17,0.223
	s1.458-0.078,2.17-0.223c0.712-0.134,1.414-0.356,2.081-0.634c0.679-0.278,1.325-0.623,1.926-1.024
	c0.612-0.401,1.18-0.868,1.692-1.38s0.979-1.08,1.38-1.692c0.401-0.601,0.746-1.247,1.024-1.926
	c0.278-0.668,0.501-1.369,0.634-2.081c0.145-0.712,0.223-1.447,0.223-2.17c0-0.723-0.078-1.458-0.223-2.17
	C344.687,297.639,344.465,296.938,344.186,296.27z"/>
<path d="M389.565,244.87H278.261c-6.147,0-11.13,4.983-11.13,11.13v44.522c0,6.147,4.983,11.13,11.13,11.13h22.261
	c6.147,0,11.13-4.983,11.13-11.13s-4.983-11.13-11.13-11.13h-11.13V267.13h89.043v22.261h-11.13c-6.147,0-11.13,4.983-11.13,11.13
	s4.983,11.13,11.13,11.13h22.261c6.147,0,11.13-4.983,11.13-11.13V256C400.696,249.853,395.713,244.87,389.565,244.87z"/>
<path d="M434.087,200.348h-22.291c7.003-9.308,11.16-20.873,11.16-33.391V55.652C422.957,24.966,397.991,0,367.304,0H144.696
	c-30.687,0-55.652,24.966-55.652,55.652v111.304c0,12.518,4.157,24.083,11.16,33.391H77.913C34.952,200.348,0,235.3,0,278.261
	v66.783v33.391c0,24.549,19.972,44.522,44.522,44.522c8.125,0,15.742-2.198,22.305-6.016c0.865,25.754,20.425,46.837,45.516,50.087
	c4.996,25.593,27.58,44.973,54.614,44.973c26.876,0,49.361-19.15,54.532-44.522h69.022C295.682,492.85,318.167,512,345.043,512
	c27.034,0,49.617-19.379,54.613-44.973c25.09-3.25,44.651-24.333,45.516-50.087c6.565,3.818,14.181,6.016,22.306,6.016
	c24.549,0,44.522-19.972,44.522-44.522v-33.391v-66.783C512,235.3,477.048,200.348,434.087,200.348z M489.739,278.261v55.652
	h-44.522V223.727C470.588,228.898,489.739,251.385,489.739,278.261z M111.304,166.957V55.652c0-18.412,14.979-33.391,33.391-33.391
	h222.609c18.412,0,33.391,14.979,33.391,33.391v111.304c0,18.412-14.979,33.391-33.391,33.391H144.696
	C126.284,200.348,111.304,185.368,111.304,166.957z M22.261,278.261c0-26.876,19.151-49.362,44.522-54.534v110.186H22.261V278.261z
	 M44.522,400.696c-12.275,0-22.261-9.986-22.261-22.261v-22.261h44.522v22.261C66.783,390.709,56.796,400.696,44.522,400.696z
	 M166.957,489.739c-14.512,0-26.89-9.304-31.485-22.261h62.968C193.847,480.435,181.468,489.739,166.957,489.739z M345.043,489.739
	c-14.512,0-26.89-9.304-31.485-22.261h62.968C371.933,480.435,359.555,489.739,345.043,489.739z M422.957,415.165
	c0,16.571-13.481,30.052-30.052,30.052h-3.339h-89.043h-89.043h-89.043h-3.339c-16.571,0-30.052-13.481-30.052-30.052v-36.73
	v-33.391V222.609h55.652h222.609h55.652v122.435v33.391V415.165z M489.739,378.435c0,12.275-9.986,22.261-22.261,22.261
	s-22.261-9.986-22.261-22.261v-22.261h44.522V378.435z"/>
<path d="M278.261,144.696h-44.522c-6.147,0-11.13,4.983-11.13,11.13c0,18.412,14.979,33.391,33.391,33.391
	s33.391-14.979,33.391-33.391C289.391,149.679,284.408,144.696,278.261,144.696z"/>
</svg>